<mxfile host="app.diagrams.net" modified="2023-05-06T03:54:51.004Z" agent="Mozilla/5.0 (Macintosh; Intel Mac OS X 10_15_7) AppleWebKit/537.36 (KHTML, like Gecko) Chrome/111.0.0.0 Safari/537.36" etag="T-XjakuBUvtvwaigapey" version="21.2.7" type="device">
  <diagram id="zvLTGMn5gk5Rh28aIZBp" name="Page-1">
    <mxGraphModel dx="1026" dy="524" grid="1" gridSize="10" guides="1" tooltips="1" connect="1" arrows="1" fold="1" page="1" pageScale="1" pageWidth="850" pageHeight="1100" math="0" shadow="0">
      <root>
        <mxCell id="0" />
        <mxCell id="1" parent="0" />
        <mxCell id="evAMdRpHVFR4wJkXm2O9-28" style="edgeStyle=orthogonalEdgeStyle;rounded=0;orthogonalLoop=1;jettySize=auto;html=1;exitX=1;exitY=0.5;exitDx=0;exitDy=0;exitPerimeter=0;entryX=0;entryY=0.5;entryDx=0;entryDy=0;endArrow=classicThin;endFill=1;" parent="1" target="evAMdRpHVFR4wJkXm2O9-7" edge="1">
          <mxGeometry relative="1" as="geometry">
            <mxPoint x="160" y="75" as="sourcePoint" />
          </mxGeometry>
        </mxCell>
        <mxCell id="evAMdRpHVFR4wJkXm2O9-37" style="edgeStyle=orthogonalEdgeStyle;rounded=0;orthogonalLoop=1;jettySize=auto;html=1;exitX=1;exitY=0.5;exitDx=0;exitDy=0;exitPerimeter=0;entryX=0;entryY=0.5;entryDx=0;entryDy=0;endArrow=classicThin;endFill=1;" parent="1" target="evAMdRpHVFR4wJkXm2O9-11" edge="1">
          <mxGeometry relative="1" as="geometry">
            <mxPoint x="160" y="75" as="sourcePoint" />
          </mxGeometry>
        </mxCell>
        <mxCell id="evAMdRpHVFR4wJkXm2O9-29" style="edgeStyle=orthogonalEdgeStyle;rounded=0;orthogonalLoop=1;jettySize=auto;html=1;exitX=1;exitY=0.5;exitDx=0;exitDy=0;entryX=0;entryY=0.5;entryDx=0;entryDy=0;endArrow=classicThin;endFill=1;" parent="1" source="evAMdRpHVFR4wJkXm2O9-7" target="evAMdRpHVFR4wJkXm2O9-26" edge="1">
          <mxGeometry relative="1" as="geometry" />
        </mxCell>
        <mxCell id="evAMdRpHVFR4wJkXm2O9-7" value="" style="shape=image;verticalLabelPosition=bottom;labelBackgroundColor=default;verticalAlign=top;aspect=fixed;imageAspect=0;image=https://d2xunoxnk3vwmv.cloudfront.net/encyclopedias/636541190776437758-BSF2.jpg;clipPath=inset(0% 20% 1.58% 20%);" parent="1" vertex="1">
          <mxGeometry x="200" y="40" width="71.87" height="70" as="geometry" />
        </mxCell>
        <mxCell id="evAMdRpHVFR4wJkXm2O9-42" style="edgeStyle=orthogonalEdgeStyle;rounded=0;orthogonalLoop=1;jettySize=auto;html=1;exitX=1;exitY=0.5;exitDx=0;exitDy=0;entryX=0;entryY=0.5;entryDx=0;entryDy=0;endArrow=classicThin;endFill=1;" parent="1" source="evAMdRpHVFR4wJkXm2O9-11" target="evAMdRpHVFR4wJkXm2O9-35" edge="1">
          <mxGeometry relative="1" as="geometry" />
        </mxCell>
        <mxCell id="evAMdRpHVFR4wJkXm2O9-11" value="" style="shape=image;verticalLabelPosition=bottom;labelBackgroundColor=default;verticalAlign=top;aspect=fixed;imageAspect=0;image=https://d2xunoxnk3vwmv.cloudfront.net/encyclopedias/636541190730678649-BPF2.jpg;clipPath=inset(0% 20.19% 0% 19.57%);" parent="1" vertex="1">
          <mxGeometry x="200" y="121" width="70.45" height="69" as="geometry" />
        </mxCell>
        <mxCell id="evAMdRpHVFR4wJkXm2O9-20" value="" style="html=1;verticalLabelPosition=bottom;align=center;labelBackgroundColor=#ffffff;verticalAlign=top;strokeWidth=1;strokeColor=#000000;shadow=0;dashed=0;shape=mxgraph.ios7.icons.add;" parent="1" vertex="1">
          <mxGeometry x="526" y="40" width="70" height="70" as="geometry" />
        </mxCell>
        <mxCell id="evAMdRpHVFR4wJkXm2O9-26" value="" style="shape=image;verticalLabelPosition=bottom;labelBackgroundColor=default;verticalAlign=top;aspect=fixed;imageAspect=0;image=https://d2xunoxnk3vwmv.cloudfront.net/encyclopedias/636541190776437758-BSF2.jpg;clipPath=inset(0% 20% 1.58% 20%);" parent="1" vertex="1">
          <mxGeometry x="360" y="40" width="71.87" height="70" as="geometry" />
        </mxCell>
        <mxCell id="evAMdRpHVFR4wJkXm2O9-32" style="edgeStyle=orthogonalEdgeStyle;rounded=0;orthogonalLoop=1;jettySize=auto;html=1;exitX=1;exitY=0.5;exitDx=0;exitDy=0;entryX=0;entryY=0.502;entryDx=0;entryDy=0;entryPerimeter=0;endArrow=classicThin;endFill=1;" parent="1" source="evAMdRpHVFR4wJkXm2O9-26" target="evAMdRpHVFR4wJkXm2O9-20" edge="1">
          <mxGeometry relative="1" as="geometry">
            <mxPoint x="471.8700000000001" y="75" as="sourcePoint" />
          </mxGeometry>
        </mxCell>
        <mxCell id="evAMdRpHVFR4wJkXm2O9-46" style="edgeStyle=orthogonalEdgeStyle;rounded=0;orthogonalLoop=1;jettySize=auto;html=1;exitX=1;exitY=0.5;exitDx=0;exitDy=0;endArrow=classicThin;endFill=1;" parent="1" source="evAMdRpHVFR4wJkXm2O9-35" edge="1">
          <mxGeometry relative="1" as="geometry">
            <mxPoint x="560" y="110" as="targetPoint" />
          </mxGeometry>
        </mxCell>
        <mxCell id="evAMdRpHVFR4wJkXm2O9-35" value="Parameter Shift" style="text;html=1;strokeColor=default;fillColor=none;align=center;verticalAlign=middle;whiteSpace=wrap;rounded=0;strokeWidth=1;" parent="1" vertex="1">
          <mxGeometry x="300" y="140.5" width="90" height="30" as="geometry" />
        </mxCell>
        <mxCell id="evAMdRpHVFR4wJkXm2O9-45" style="edgeStyle=orthogonalEdgeStyle;rounded=0;orthogonalLoop=1;jettySize=auto;html=1;exitX=1;exitY=0.5;exitDx=0;exitDy=0;entryX=0.571;entryY=1;entryDx=0;entryDy=0;entryPerimeter=0;endArrow=none;endFill=0;" parent="1" source="evAMdRpHVFR4wJkXm2O9-36" target="evAMdRpHVFR4wJkXm2O9-20" edge="1">
          <mxGeometry relative="1" as="geometry">
            <Array as="points">
              <mxPoint x="560" y="215" />
            </Array>
          </mxGeometry>
        </mxCell>
        <mxCell id="evAMdRpHVFR4wJkXm2O9-36" value="Parameter Shift" style="text;html=1;strokeColor=default;fillColor=none;align=center;verticalAlign=middle;whiteSpace=wrap;rounded=0;strokeWidth=1;" parent="1" vertex="1">
          <mxGeometry x="460" y="199.5" width="90" height="30" as="geometry" />
        </mxCell>
        <mxCell id="evAMdRpHVFR4wJkXm2O9-43" style="edgeStyle=orthogonalEdgeStyle;rounded=0;orthogonalLoop=1;jettySize=auto;html=1;exitX=1;exitY=0.5;exitDx=0;exitDy=0;entryX=0;entryY=0.5;entryDx=0;entryDy=0;endArrow=classicThin;endFill=1;" parent="1" source="evAMdRpHVFR4wJkXm2O9-39" target="evAMdRpHVFR4wJkXm2O9-36" edge="1">
          <mxGeometry relative="1" as="geometry" />
        </mxCell>
        <mxCell id="evAMdRpHVFR4wJkXm2O9-39" value="" style="shape=image;verticalLabelPosition=bottom;labelBackgroundColor=default;verticalAlign=top;aspect=fixed;imageAspect=0;image=https://d2xunoxnk3vwmv.cloudfront.net/encyclopedias/636541190730678649-BPF2.jpg;clipPath=inset(0% 20.19% 0% 19.57%);" parent="1" vertex="1">
          <mxGeometry x="360" y="180" width="70.45" height="69" as="geometry" />
        </mxCell>
        <mxCell id="evAMdRpHVFR4wJkXm2O9-41" style="edgeStyle=orthogonalEdgeStyle;rounded=0;orthogonalLoop=1;jettySize=auto;html=1;exitX=1;exitY=0.5;exitDx=0;exitDy=0;exitPerimeter=0;entryX=-0.034;entryY=0.567;entryDx=0;entryDy=0;endArrow=classicThin;endFill=1;entryPerimeter=0;" parent="1" target="evAMdRpHVFR4wJkXm2O9-39" edge="1">
          <mxGeometry relative="1" as="geometry">
            <mxPoint x="160" y="75" as="sourcePoint" />
            <mxPoint x="210" y="165.5" as="targetPoint" />
            <Array as="points">
              <mxPoint x="180" y="75" />
              <mxPoint x="180" y="220" />
              <mxPoint x="210" y="220" />
            </Array>
          </mxGeometry>
        </mxCell>
        <mxCell id="evAMdRpHVFR4wJkXm2O9-60" value="" style="shape=image;verticalLabelPosition=bottom;labelBackgroundColor=default;verticalAlign=top;aspect=fixed;imageAspect=0;image=https://latex2png.com/pngs/426f8b9c19be212df5cd8e5c64575ab9.png;" parent="1" vertex="1">
          <mxGeometry x="218.9" y="90" width="32.65" height="20" as="geometry" />
        </mxCell>
        <mxCell id="evAMdRpHVFR4wJkXm2O9-61" value="" style="shape=image;verticalLabelPosition=bottom;labelBackgroundColor=default;verticalAlign=top;aspect=fixed;imageAspect=0;image=https://latex2png.com/pngs/0e6d1f4b2abdb4cf37318444f9039920.png;" parent="1" vertex="1">
          <mxGeometry x="379.2" y="90" width="33.47" height="20" as="geometry" />
        </mxCell>
        <mxCell id="evAMdRpHVFR4wJkXm2O9-62" value="" style="shape=image;verticalLabelPosition=bottom;labelBackgroundColor=default;verticalAlign=top;aspect=fixed;imageAspect=0;image=https://latex2png.com/pngs/ba3322ceba4eae6efd0d61cefe2cf4e8.png;" parent="1" vertex="1">
          <mxGeometry x="460" y="170.5" width="26.67" height="20" as="geometry" />
        </mxCell>
        <mxCell id="evAMdRpHVFR4wJkXm2O9-63" value="" style="shape=image;verticalLabelPosition=bottom;labelBackgroundColor=default;verticalAlign=top;aspect=fixed;imageAspect=0;image=https://latex2png.com/pngs/1893ed70726e0fca6835b66e6439a90c.png;" parent="1" vertex="1">
          <mxGeometry x="300" y="110" width="26.77" height="20.5" as="geometry" />
        </mxCell>
        <mxCell id="evAMdRpHVFR4wJkXm2O9-64" value="" style="endArrow=classic;html=1;rounded=0;strokeColor=#000000;fontSize=9;" parent="1" source="evAMdRpHVFR4wJkXm2O9-20" edge="1">
          <mxGeometry width="50" height="50" relative="1" as="geometry">
            <mxPoint x="430" y="190" as="sourcePoint" />
            <mxPoint x="630" y="75" as="targetPoint" />
          </mxGeometry>
        </mxCell>
        <mxCell id="HA_GkNCiBHtXIB3IIWOB-2" value="" style="shape=image;verticalLabelPosition=bottom;labelBackgroundColor=default;verticalAlign=top;aspect=fixed;imageAspect=0;image=https://latex2png.com/pngs/70cc31cd6d871f16acd47c49e9b47e27.png;" vertex="1" parent="1">
          <mxGeometry x="378.49" y="220" width="33.47" height="20" as="geometry" />
        </mxCell>
        <mxCell id="HA_GkNCiBHtXIB3IIWOB-3" value="" style="shape=image;verticalLabelPosition=bottom;labelBackgroundColor=default;verticalAlign=top;aspect=fixed;imageAspect=0;image=https://latex2png.com/pngs/5838d80a43506b015b32f6f1352027d5.png;" vertex="1" parent="1">
          <mxGeometry x="218.49" y="160" width="33.47" height="20" as="geometry" />
        </mxCell>
        <mxCell id="HA_GkNCiBHtXIB3IIWOB-4" value="" style="shape=image;verticalLabelPosition=bottom;labelBackgroundColor=default;verticalAlign=top;aspect=fixed;imageAspect=0;image=https://latex2png.com/pngs/b0cd94fbed368bfa8830f11eb2664dc7.png;" vertex="1" parent="1">
          <mxGeometry x="130" y="65" width="22.11" height="20" as="geometry" />
        </mxCell>
        <mxCell id="HA_GkNCiBHtXIB3IIWOB-6" value="" style="shape=image;verticalLabelPosition=bottom;labelBackgroundColor=default;verticalAlign=top;aspect=fixed;imageAspect=0;image=https://latex2png.com/pngs/477326cf0a233f4e8243bdd6ca0917b1.png;" vertex="1" parent="1">
          <mxGeometry x="640" y="55" width="33.17" height="30" as="geometry" />
        </mxCell>
        <mxCell id="HA_GkNCiBHtXIB3IIWOB-8" value="" style="rounded=0;whiteSpace=wrap;html=1;fillColor=none;strokeWidth=2;strokeColor=#0008ff;dashed=1;" vertex="1" parent="1">
          <mxGeometry x="190" y="30" width="90" height="170" as="geometry" />
        </mxCell>
        <mxCell id="HA_GkNCiBHtXIB3IIWOB-9" value="" style="rounded=0;whiteSpace=wrap;html=1;fillColor=none;strokeWidth=2;strokeColor=#ff0000;dashed=1;dashPattern=1 1;" vertex="1" parent="1">
          <mxGeometry x="350.22" y="30" width="90" height="225" as="geometry" />
        </mxCell>
        <mxCell id="HA_GkNCiBHtXIB3IIWOB-10" value="" style="shape=image;verticalLabelPosition=bottom;labelBackgroundColor=default;verticalAlign=top;aspect=fixed;imageAspect=0;image=https://latex2png.com/pngs/31581e74ad0f8368a8788e79466ad2f3.png;" vertex="1" parent="1">
          <mxGeometry x="200" y="3.3700000000000045" width="70" height="23.63" as="geometry" />
        </mxCell>
        <mxCell id="HA_GkNCiBHtXIB3IIWOB-11" value="" style="shape=image;verticalLabelPosition=bottom;labelBackgroundColor=default;verticalAlign=top;aspect=fixed;imageAspect=0;image=https://latex2png.com/pngs/2432c5bc4bd64ccbaaf1fd7df47e04fd.png;" vertex="1" parent="1">
          <mxGeometry x="358" y="5.3700000000000045" width="70" height="23.63" as="geometry" />
        </mxCell>
      </root>
    </mxGraphModel>
  </diagram>
</mxfile>
